<?xml version="1.0" encoding="UTF-8" standalone="no"?>
<!-- Created with Inkscape (http://www.inkscape.org/) -->

<svg
   xmlns:dc="http://purl.org/dc/elements/1.1/"
   xmlns:cc="http://creativecommons.org/ns#"
   xmlns:rdf="http://www.w3.org/1999/02/22-rdf-syntax-ns#"
   xmlns:svg="http://www.w3.org/2000/svg"
   xmlns="http://www.w3.org/2000/svg"
   xmlns:sodipodi="http://sodipodi.sourceforge.net/DTD/sodipodi-0.dtd"
   xmlns:inkscape="http://www.inkscape.org/namespaces/inkscape"
   width="284"
   height="392"
   id="svg2"
   version="1.1"
   inkscape:version="0.48.4 r9939"
   sodipodi:docname="hero_artifacts.svg">
  <defs
     id="defs4" />
  <sodipodi:namedview
     id="base"
     pagecolor="#ffffff"
     bordercolor="#666666"
     borderopacity="1.0"
     inkscape:pageopacity="0.0"
     inkscape:pageshadow="2"
     inkscape:zoom="0.98994949"
     inkscape:cx="440.45901"
     inkscape:cy="160.14792"
     inkscape:document-units="px"
     inkscape:current-layer="layer1"
     showgrid="false"
     inkscape:window-width="1535"
     inkscape:window-height="876"
     inkscape:window-x="65"
     inkscape:window-y="24"
     inkscape:window-maximized="1" />
  <metadata
     id="metadata7">
    <rdf:RDF>
      <cc:Work
         rdf:about="">
        <dc:format>image/svg+xml</dc:format>
        <dc:type
           rdf:resource="http://purl.org/dc/dcmitype/StillImage" />
        <dc:title></dc:title>
      </cc:Work>
    </rdf:RDF>
  </metadata>
  <g
     inkscape:label="Layer 1"
     inkscape:groupmode="layer"
     id="layer1"
     transform="translate(0,-660.36218)">
    <g
       id="g3006"
       transform="translate(-233.57143,323.74997)"
       inkscape:export-filename="/home/andrei/Desktop/hero-props.png"
       inkscape:export-xdpi="90.019997"
       inkscape:export-ydpi="90.019997">
      <rect
         y="335.67526"
         x="233.36157"
         height="392.91666"
         width="284.32529"
         id="rect3806"
         style="fill:none;stroke:none" />
      <g
         id="g3808">
        <path
           style="fill:#630000;fill-opacity:1;stroke:#ff6600;stroke-width:1.60000002;stroke-linecap:butt;stroke-linejoin:miter;stroke-miterlimit:4;stroke-opacity:1;stroke-dasharray:none"
           d="m 339.15872,438.69451 c 0,0 7.3236,18.43528 6.31345,55.55839 -1.01015,37.12311 -3.69789,97.10448 -1.76777,103.03556 6.06092,18.62469 17.74081,19.12976 17.74081,19.12976 l 1.19955,-4.92449 c 0,0 -0.34883,3.26449 0.35776,5.80718 0.42282,1.52152 1.19238,3.79086 3.17778,4.73629 5.3033,2.52538 19.1929,4.29315 24.24366,3.78807 5.05076,-0.50508 3.53553,-9.09137 3.53553,-9.09137 0,0 -2.0203,19.44543 39.39595,-0.25254 2.58852,-0.82075 1.51523,-8.33376 1.51523,-8.33376 0,0 -3.03046,9.59644 14.14214,3.53553 3.45745,-1.22028 5.84003,-2.27676 7.4404,-3.18595 0.982,-0.82866 0.70395,-6.47363 0.70395,-6.47363 0,0 0.72862,5.28785 2.71054,5.04097 3.52194,-0.43873 0.95891,-0.0222 6.57023,-1.00035 6.88168,-1.19956 3.66181,-9.09138 3.66181,-9.09138 0,0 1.26269,12.69004 20.58186,-6.7554 4.01416,-4.12624 -0.25254,-9.84898 -0.25254,-9.84898 0,0 -22.98097,-40.15357 -26.5165,-55.05332 -3.53554,-14.89975 -12.12183,-29.54696 -10.10153,-41.41625 2.02031,-11.8693 2.02031,-11.8693 2.02031,-11.8693 0,0 -7.25991,13.90407 -11.54562,8.7255 C 440,475.57647 445,448.79075 425,446.6479 c -20,-2.14286 -85.84128,-7.95339 -85.84128,-7.95339 z"
           id="path3766"
           inkscape:connector-curvature="0"
           sodipodi:nodetypes="cssccssscccsccsscccssc" />
        <path
           style="fill:#940000;fill-opacity:1;stroke:#ff6600;stroke-width:2;stroke-linecap:round;stroke-linejoin:round;stroke-miterlimit:4;stroke-opacity:1;stroke-dasharray:none"
           d="m 274.88776,399.42483 -2.0203,-4.54569 c 0,0 0.75761,-4.41941 -3.283,-5.42957 -4.04061,-1.01015 -14.39467,-2.0203 -15.65736,4.16688 -1.26269,6.18719 -1.51523,12.75318 2.27284,14.01587 3.78807,1.26269 16.92005,8.46003 19.31917,11.36422 2.39911,2.90418 16.66751,13.13198 22.60216,15.02601 5.93465,1.89404 16.28871,7.32361 13.51079,2.39912 -2.77792,-4.9245 1.76777,-2.65165 5.05076,-1.38896 3.283,1.26269 5.55584,-1.38896 16.54125,2.27284 10.98541,3.6618 16.79379,0.88388 21.08694,11.99556 4.29314,11.11168 8.46002,27.27412 5.17703,31.69354 -3.283,4.41942 -8.83884,17.17259 -6.69226,19.1929 2.14657,2.0203 5.93464,3.6618 5.68211,8.08122 -0.25254,4.41941 1.13642,7.3236 2.27284,11.86929 1.13642,4.54569 4.67195,25.50635 -0.25254,17.67767 -4.92449,-7.82868 -5.55584,-4.92449 -2.65165,4.04061 2.90419,8.9651 6.56599,17.29886 6.81853,22.47589 0.25254,5.17704 0.50508,8.08122 4.16688,12.12183 3.6618,4.04061 4.67195,17.1726 7.70241,17.1726 3.03046,0 2.27285,11.49048 3.78807,19.5717 1.51523,8.08122 3.78808,10.85914 1.6415,11.8693 -2.14657,1.01015 -15.02602,1.89403 -27.65292,12.87944 -12.62691,10.98541 36.11295,1.13642 36.11295,1.13642 l 2.77792,-13.13198 c 0,0 -6.56599,26.64277 -4.79823,31.06219 1.76777,4.41942 2.39912,5.42957 6.43973,6.06091 4.04061,0.63135 14.89975,2.27285 14.77348,-8.08122 -0.12627,-10.35406 2.52538,-21.46574 -0.12627,-27.40038 -2.65165,-5.93465 2.65165,-31.56727 2.65165,-37.62819 0,-6.06091 -1.26269,-13.13198 3.53553,-18.94036 4.79823,-5.80837 -0.88388,-12.75317 1.89404,-18.43528 2.77792,-5.68211 2.90419,-18.30901 -0.50508,-8.83883 -3.40926,9.47018 -4.54568,-0.37881 -1.6415,-14.52095 2.90419,-14.14213 -2.14657,-17.42513 2.90419,-21.2132 5.05077,-3.78808 6.31346,-8.46003 3.53554,-14.77348 -2.77792,-6.31346 -7.32361,-13.13199 -3.283,-24.87501 4.04061,-11.74302 1.38897,-23.61232 5.05077,-13.8896 3.6618,9.72272 0.88388,8.33376 4.54568,13.8896 3.6618,5.55584 -1.13642,4.41942 1.6415,13.38452 2.77792,8.96511 1.01015,13.00572 2.65165,15.15229 1.6415,2.14658 2.65165,7.57614 2.77792,13.63706 0.12627,6.06092 -8.33376,4.79823 -6.69226,10.85914 1.6415,6.06092 11.74302,7.70241 15.27856,7.19734 3.53553,-0.50508 12.37436,-3.78808 8.20748,-19.82425 -4.16687,-16.03617 2.52539,-23.48604 3.15673,-31.44099 0.63135,-7.95496 0.75762,-11.23795 -2.90419,-6.06092 -3.6618,5.17703 -6.9448,-0.12627 -6.69226,-3.53553 0.25254,-3.40927 2.14658,-5.42957 -1.89403,-12.2481 -4.04061,-6.81853 -10.48034,-32.95623 -6.566,-33.71384 3.91435,-0.75762 9.47018,-0.75762 1.51523,-5.68211 -7.95495,-4.9245 -7.82868,-7.82869 -14.39467,-9.47018 -6.56599,-1.6415 -15.65736,-0.88389 -16.66752,-13.13199 -1.01015,-12.2481 -2.52538,-16.41498 -0.3788,-27.02158 2.14657,-10.6066 -7.82869,-19.1929 -11.36422,-20.96066 -3.53553,-1.76777 -5.55584,-2.14658 -5.80838,-3.91434 -0.25254,-1.76777 -0.25254,1.26269 -1.26269,1.64149 -1.01015,0.37881 -20.96066,5.17704 -17.80394,24.36993 3.15673,19.1929 -3.78807,21.84455 -2.77792,25.50636 1.01016,3.6618 6.43973,12.50063 -1.64149,10.10152 -8.08122,-2.39911 -14.77349,-4.67195 -27.52666,3.15673 -12.75318,7.82868 -10.42252,7.37889 -15.02602,5.93465 -6.43973,-2.02031 -20.42131,-1.9595 -32.07234,-2.90419 -4.67196,-0.37881 -17.04633,-9.97526 -17.04633,-9.97526 z"
           id="path2996"
           inkscape:connector-curvature="0"
           sodipodi:nodetypes="ccsssssssssssssssssssssccssssssssssssssssssssssssssssssssssssssc" />
      </g>
      <rect
         y="604.3595"
         x="289.40869"
         height="43.436558"
         width="43.436558"
         id="rect3768"
         style="fill:none;stroke:#ffffff;stroke-width:0.30000001;stroke-linecap:round;stroke-linejoin:miter;stroke-miterlimit:4;stroke-opacity:0.21004567;stroke-dasharray:none" />
      <rect
         style="fill:none;stroke:#ffffff;stroke-width:0.30000001;stroke-linecap:round;stroke-linejoin:miter;stroke-miterlimit:4;stroke-opacity:0.21004567;stroke-dasharray:none"
         id="rect3770"
         width="43.436558"
         height="43.436558"
         x="273.24625"
         y="553.17847" />
      <rect
         y="502.50247"
         x="257.08383"
         height="43.436558"
         width="43.436558"
         id="rect3772"
         style="fill:none;stroke:#ffffff;stroke-width:0.30000001;stroke-linecap:round;stroke-linejoin:miter;stroke-miterlimit:4;stroke-opacity:0.21004567;stroke-dasharray:none" />
      <rect
         style="fill:none;stroke:#ffffff;stroke-width:0.30000001;stroke-linecap:round;stroke-linejoin:miter;stroke-miterlimit:4;stroke-opacity:0.21004567;stroke-dasharray:none"
         id="rect3774"
         width="43.436558"
         height="43.436558"
         x="240.92139"
         y="451.82648" />
      <rect
         y="604.3595"
         x="239.40616"
         height="43.436558"
         width="43.436558"
         id="rect3776"
         style="fill:none;stroke:#ffffff;stroke-width:0.30000001;stroke-linecap:round;stroke-linejoin:miter;stroke-miterlimit:4;stroke-opacity:0.21004567;stroke-dasharray:none" />
      <rect
         style="fill:none;stroke:#ffffff;stroke-width:0.30000001;stroke-linecap:round;stroke-linejoin:miter;stroke-miterlimit:4;stroke-opacity:0.21004567;stroke-dasharray:none"
         id="rect3778"
         width="43.436558"
         height="43.436558"
         x="240.92139"
         y="378.08533" />
      <rect
         y="378.08533"
         x="289.91379"
         height="43.436558"
         width="43.436558"
         id="rect3780"
         style="fill:none;stroke:#ffffff;stroke-width:0.30000001;stroke-linecap:round;stroke-linejoin:miter;stroke-miterlimit:4;stroke-opacity:0.21004567;stroke-dasharray:none" />
      <rect
         style="fill:none;stroke:#ffffff;stroke-width:0.30000001;stroke-linecap:round;stroke-linejoin:miter;stroke-miterlimit:4;stroke-opacity:0.21004567;stroke-dasharray:none"
         id="rect3782"
         width="43.436558"
         height="43.436558"
         x="367.44302"
         y="338.43683" />
      <rect
         y="338.43683"
         x="422.74887"
         height="43.436558"
         width="43.436558"
         id="rect3784"
         style="fill:none;stroke:#ffffff;stroke-width:0.30000001;stroke-linecap:round;stroke-linejoin:miter;stroke-miterlimit:4;stroke-opacity:0.21004567;stroke-dasharray:none" />
      <rect
         style="fill:none;stroke:#ffffff;stroke-width:0.30000001;stroke-linecap:round;stroke-linejoin:miter;stroke-miterlimit:4;stroke-opacity:0.21004567;stroke-dasharray:none"
         id="rect3786"
         width="43.436558"
         height="43.436558"
         x="468.71082"
         y="338.43683" />
      <rect
         y="384.77759"
         x="468.71082"
         height="43.436558"
         width="43.436558"
         id="rect3788"
         style="fill:none;stroke:#ffffff;stroke-width:0.30000001;stroke-linecap:round;stroke-linejoin:miter;stroke-miterlimit:4;stroke-opacity:0.21004567;stroke-dasharray:none" />
      <rect
         style="fill:none;stroke:#ffffff;stroke-width:0.30000001;stroke-linecap:round;stroke-linejoin:miter;stroke-miterlimit:4;stroke-opacity:0.21004567;stroke-dasharray:none"
         id="rect3790"
         width="43.436558"
         height="43.436558"
         x="468.71082"
         y="431.11832" />
      <rect
         y="493.24271"
         x="420.72858"
         height="43.436558"
         width="43.436558"
         id="rect3792"
         style="fill:none;stroke:#ffffff;stroke-width:0.30000001;stroke-linecap:round;stroke-linejoin:miter;stroke-miterlimit:4;stroke-opacity:0.21004567;stroke-dasharray:none" />
      <rect
         style="fill:none;stroke:#ffffff;stroke-width:0.30000001;stroke-linecap:round;stroke-linejoin:miter;stroke-miterlimit:4;stroke-opacity:0.21004567;stroke-dasharray:none"
         id="rect3794"
         width="43.436558"
         height="43.436558"
         x="468.71082"
         y="493.24271" />
      <rect
         y="620.01685"
         x="468.71082"
         height="43.436558"
         width="43.436558"
         id="rect3796"
         style="fill:none;stroke:#ffffff;stroke-width:0.30000001;stroke-linecap:round;stroke-linejoin:miter;stroke-miterlimit:4;stroke-opacity:0.21004567;stroke-dasharray:none" />
      <rect
         style="fill:none;stroke:#ffffff;stroke-width:0.30000001;stroke-linecap:round;stroke-linejoin:miter;stroke-miterlimit:4;stroke-opacity:0.21004567;stroke-dasharray:none"
         id="rect3798"
         width="43.436558"
         height="43.436558"
         x="374.76663"
         y="604.3595" />
      <rect
         style="fill:none;stroke:#ffffff;stroke-width:0.30000001;stroke-linecap:round;stroke-linejoin:miter;stroke-miterlimit:4;stroke-opacity:0.21004567;stroke-dasharray:none"
         id="rect3800"
         width="43.436558"
         height="43.436558"
         x="426.78949"
         y="551.32648" />
      <rect
         y="439.19955"
         x="367.44302"
         height="43.436558"
         width="43.436558"
         id="rect3802"
         style="fill:none;stroke:#ffffff;stroke-width:0.30000001;stroke-linecap:round;stroke-linejoin:miter;stroke-miterlimit:4;stroke-opacity:0.21004567;stroke-dasharray:none" />
      <rect
         style="fill:none;stroke:#ffffff;stroke-width:0.30000001;stroke-linecap:round;stroke-linejoin:miter;stroke-miterlimit:4;stroke-opacity:0.21004567;stroke-dasharray:none"
         id="rect3804"
         width="43.436558"
         height="43.436558"
         x="367.69559"
         y="388.69193" />
      <rect
         style="fill:none;stroke:#ffffff;stroke-width:0.2;stroke-linecap:round;stroke-linejoin:miter;stroke-miterlimit:4;stroke-opacity:0.21004567;stroke-dasharray:none"
         id="rect3079"
         width="272.27505"
         height="42.989334"
         x="239.62978"
         y="678.58313" />
    </g>
  </g>
</svg>
